<?xml version="1.0" encoding="UTF-8"?>
<!DOCTYPE svg PUBLIC "-//W3C//DTD SVG 1.1//EN" "http://www.w3.org/Graphics/SVG/1.1/DTD/svg11.dtd">
<!-- Creator: CorelDRAW -->
<svg xmlns="http://www.w3.org/2000/svg" xml:space="preserve" width="3323px" height="617px" version="1.1" style="shape-rendering:geometricPrecision; text-rendering:geometricPrecision; image-rendering:optimizeQuality; fill-rule:evenodd; clip-rule:evenodd"
viewBox="0 0 3412.93 634.09"
 xmlns:xlink="http://www.w3.org/1999/xlink"
 xmlns:xodm="http://www.corel.com/coreldraw/odm/2003">
 <defs>
  <style type="text/css">
   <![CDATA[
    .fil1 {fill:#006481}
    .fil0 {fill:#E40059}
   ]]>
  </style>
 </defs>
 <g id="Layer_x0020_1">
  <metadata id="CorelCorpID_0Corel-Layer"/>
  <g id="_2049414100608">
   <path class="fil0" d="M889.24 269.45l-43.23 0 0 148.92 -75.11 0 0 -364.49 75.11 0 0 145.94 34.26 0 89.11 -145.94 91.6 0 -112.36 172.51 124.14 191.98 -89.62 0 -93.9 -148.92zm287.42 20.51l0 128.41 -75.1 0 0 -364.49 142.17 0c27.34,0 51.43,5.05 72.2,15.04 20.76,10 36.73,24.27 47.93,42.73 11.19,18.36 16.74,39.38 16.74,62.88 0,35.71 -12.22,63.91 -36.65,84.5 -24.44,20.59 -58.27,30.93 -101.51,30.93l-65.78 0zm0 -60.84l67.07 0c19.82,0 35.03,-4.7 45.45,-14.01 10.43,-9.32 15.64,-22.73 15.64,-40.07 0,-17.86 -5.3,-32.3 -15.81,-43.23 -10.5,-11.02 -25.03,-16.75 -43.57,-17.09l-68.78 0 0 114.4zm474.02 -175.24l75.35 0 0 364.49 -75.35 0 0 -242.05 -145.93 242.05 -75.02 0 0 -364.49 75.02 0 0 242.57 145.93 -242.57zm426.51 243.08l0 0c-2.82,39.22 -17.25,70.06 -43.4,92.62 -26.06,22.56 -60.49,33.83 -103.21,33.83 -46.74,0 -83.48,-15.72 -110.31,-47.25 -26.74,-31.44 -40.15,-74.58 -40.15,-129.52l0 -22.3c0,-35.04 6.15,-65.87 18.54,-92.53 12.31,-26.74 29.99,-47.25 52.88,-61.52 22.99,-14.26 49.64,-21.35 79.97,-21.35 42.13,0 75.96,11.27 101.68,33.74 25.72,22.56 40.5,54.17 44.51,94.92l-75.1 0c-1.79,-23.58 -8.37,-40.58 -19.65,-51.17 -11.19,-10.68 -28.37,-15.98 -51.44,-15.98 -25.03,0 -43.74,8.97 -56.13,26.92 -12.47,17.93 -18.88,45.78 -19.13,83.47l0 27.6c0,39.38 5.89,68.17 17.85,86.28 11.96,18.2 30.76,27.35 56.48,27.35 23.15,0 40.5,-5.3 51.95,-15.9 11.36,-10.59 17.94,-26.99 19.64,-49.21l75.02 0zm315.17 -182.24l-111.66 0 0 303.65 -75.1 0 0 -303.65 -110.12 0 0 -60.84 296.88 0 0 60.84zm216.76 228.55l0 0 25.29 75.1 79.89 0 -136.45 -364.49 -69.63 0 -135.59 364.49 79.8 0 25.03 -75.1 131.66 0zm-111.42 -60.83l0 0 45.38 -136.45 45.8 136.45 -91.18 0zm552.02 -228.56l0 364.49 -75.35 0 0 -303.65 -97.14 0 -5.96 128.67c-2.59,43.4 -8.04,77.58 -16.58,102.53 -8.48,24.94 -20.94,43.23 -37.26,54.77 -16.42,11.62 -38.7,17.51 -67.09,17.68l-19.56 0 0 -60.32 12.58 -1.28c18.79,-2.48 32.29,-13.32 40.4,-32.64 8.12,-19.31 13.25,-53.57 15.39,-103.04l6.22 -167.21 244.35 0zm363.21 0l0 364.49 -75.35 0 0 -303.65 -97.15 0 -5.98 128.67c-2.57,43.4 -8.04,77.58 -16.58,102.53 -8.46,24.94 -20.91,43.23 -37.24,54.77 -16.41,11.62 -38.7,17.51 -67.06,17.68l-19.58 0 0 -60.32 12.57 -1.28c18.79,-2.48 32.3,-13.32 40.4,-32.64 8.13,-19.31 13.25,-53.57 15.39,-103.04l6.22 -167.21 244.36 0z"/>
   <path class="fil1" d="M782.86 582.85l0 -36.73c1.83,0 3.91,0.74 5.98,2.08 2.08,1.34 5.37,4.75 10,10l21.85 24.65 15.13 0 -22.21 -24.65c-8.9,-9.88 -14.88,-15.25 -17.93,-15.98 5.36,-1.35 7.56,-4.15 10.25,-8.91l7.68 -12.69c1.84,-3.06 3.66,-5.38 5.24,-6.72 1.6,-1.34 3.31,-1.95 5.38,-1.95l6.22 0 0 -8.29 -5.49 0c-5.73,0 -9.64,0.6 -11.72,1.82 -2.06,1.23 -4.87,4.4 -8.17,9.52l-10.86 16.96c-2.93,4.52 -4.51,5.98 -11.35,5.98l0 -34.28 -11.96 0 0 79.19 11.96 0zm128.74 0l-12.32 0 -9.03 -24.04 -33.93 0 -8.91 24.04 -11.71 0 31.48 -79.19 13.67 0 30.75 79.19zm-24.28 -32.22l0 0 -13.43 -35.75 -1.09 0 -13.43 35.75 27.95 0zm73.94 -9.76l0 -0.48c5.25,-0.86 10.86,-3.67 10.86,-9.53l0 -14.76c0,-5 -2.31,-8.42 -6.83,-10.37 -4.64,-1.95 -11.35,-2.93 -20.26,-2.93 -5.72,0 -13.54,0.37 -23.42,0.98l0 8.29c0.12,0 3.3,-0.24 9.27,-0.72 5.98,-0.37 10.74,-0.62 14.28,-0.62 10.61,0 15.85,2.08 15.85,6.35l0 13.3c0,5.25 -5.49,7.81 -16.46,7.81l-14.4 0 0 7.57 16.47 0c10.86,0 16.35,2.56 16.35,7.56l0 13.3c0,8.66 -10.01,9.15 -18.66,9.15 -6.35,0 -14.4,-0.97 -24.29,-3.05l0 9.03c8.79,1.59 17.33,2.32 25.5,2.32 8.78,0 17.08,-0.73 22.45,-4.39 3.54,-2.32 6.47,-6.72 6.47,-12.57l0 -15.86c0,-7.69 -6.71,-9.28 -13.18,-10.38zm100.67 41.98l0 0 -30.75 -79.19 -13.67 0 -31.48 79.19 11.71 0 8.91 -24.04 33.93 0 9.03 24.04 12.32 0zm-24.28 -32.22l-27.95 0 13.43 -35.75 1.1 0 13.42 35.75zm102.14 32.22l0 -79.19 -11.84 0 0 34.16 -42.1 0 0 -34.16 -11.84 0 0 79.19 11.84 0 0 -36.73 42.1 0 0 36.73 11.84 0zm51.61 -72.36l0 0c6.46,0 13.67,0.98 21.47,2.93l0 -8.79c-7.07,-1.59 -14.27,-2.31 -21.72,-2.31 -22.21,0 -33.3,7.56 -33.3,22.69l0 37.59c0,14.27 11.09,21.47 33.3,21.47 7.69,0 15.14,-0.73 22.21,-2.32l0 -9.03c-7.81,1.95 -15,2.93 -21.47,2.93 -15.13,0 -22.7,-4.52 -22.7,-13.67l0 -37.09c0,-12.08 10.25,-14.4 22.21,-14.4zm49.66 72.36l0 -36.73c1.83,0 3.91,0.74 5.98,2.08 2.07,1.34 5.37,4.75 10.01,10l21.84 24.65 15.13 0 -22.21 -24.65c-8.9,-9.88 -14.88,-15.25 -17.93,-15.98 5.36,-1.35 7.56,-4.15 10.25,-8.91l7.68 -12.69c1.83,-3.06 3.66,-5.38 5.24,-6.72 1.6,-1.34 3.31,-1.95 5.38,-1.95l6.22 0 0 -8.29 -5.49 0c-5.73,0 -9.64,0.6 -11.71,1.82 -2.07,1.23 -4.89,4.4 -8.18,9.52l-10.86 16.96c-2.93,4.52 -4.51,5.98 -11.35,5.98l0 -34.28 -11.96 0 0 79.19 11.96 0zm75.66 0l0 0 42.58 -66.51 0 66.51 10.87 0 0 -79.19 -14.28 0 -42.59 65.4 0 -65.4 -10.86 0 0 79.19 14.28 0zm88.22 0l0 0 42.58 -66.51 0 66.51 10.87 0 0 -79.19 -14.29 0 -42.58 65.4 0 -65.4 -10.86 0 0 79.19 14.28 0zm21.1 -93.1l0 0c-2.67,0 -4.51,-0.61 -5.6,-1.71 -1.11,-1.1 -2.2,-3.3 -3.31,-6.47l-10.48 0c0.48,8.91 7.56,15.5 16.83,15.5 9.16,0 16.23,-6.71 16.85,-15.5l-5.49 0c-1.48,4.75 -3.3,8.18 -8.8,8.18zm118.61 51.12l0 -0.48c5.24,-0.86 10.86,-3.67 10.86,-9.53l0 -14.76c0,-5 -2.31,-8.42 -6.83,-10.37 -4.64,-1.95 -11.35,-2.93 -20.26,-2.93 -5.73,0 -13.54,0.37 -23.43,0.98l0 8.29c0.12,0 3.3,-0.24 9.27,-0.72 5.99,-0.37 10.74,-0.62 14.28,-0.62 10.62,0 15.86,2.08 15.86,6.35l0 13.3c0,5.25 -5.49,7.81 -16.47,7.81l-14.39 0 0 7.57 16.46 0c10.87,0 16.36,2.56 16.36,7.56l0 13.3c0,8.66 -10.01,9.15 -18.67,9.15 -6.35,0 -14.4,-0.97 -24.29,-3.05l0 9.03c8.79,1.59 17.33,2.32 25.51,2.32 8.78,0 17.08,-0.73 22.45,-4.39 3.54,-2.32 6.47,-6.72 6.47,-12.57l0 -15.86c0,-7.69 -6.72,-9.28 -13.18,-10.38zm100.66 41.98l0 0 -30.74 -79.19 -13.67 0 -31.48 79.19 11.71 0 8.91 -24.04 33.92 0 9.03 24.04 12.32 0zm-24.27 -32.22l-27.95 0 13.42 -35.75 1.11 0 13.42 35.75zm79.19 -9.64l0 -0.48c6.34,-1.47 10.86,-4.03 10.86,-11.23l0 -10.62c0,-7.81 -2.68,-10.61 -9.27,-12.93 -3.91,-1.35 -9.27,-2.07 -16.11,-2.07l-28.31 0 0 79.19 29.16 0c9.89,0 17.09,-1.22 21.48,-3.54 4.39,-2.32 6.58,-6.47 6.58,-12.2l0 -13.3c0,-7.81 -7.19,-11.59 -14.39,-12.82zm-14.15 -2.68l-16.85 0 0 -26.84 16.48 0c8.3,0 14.27,0.97 14.27,8.17l0 9.28c0,7.68 -5.37,9.39 -13.9,9.39zm16.71 28.31l0 0c0,2.93 -1.22,5 -3.66,6.22 -2.44,1.22 -6.58,1.83 -12.57,1.83l-17.33 0 0 -28.91 17.33 0c5.25,0 6.96,0 10.99,1.1 3.41,1.09 5.24,3.41 5.24,7.8l0 11.96zm93.95 -41.61l0 0c0,-15.01 -11.22,-22.57 -33.55,-22.57 -22.08,0 -33.19,7.56 -33.19,22.69l0 37.47c0,14.27 11.11,21.47 33.19,21.47 4.03,0 7.81,-0.24 11.35,-0.85 11.71,-1.96 22.2,-6.96 22.2,-20.62l0 -37.59zm-33.43 -14.88l0 0c14.65,0 21.97,4.87 21.97,14.64l0 37.7c0,9.15 -7.32,13.67 -21.84,13.67 -14.77,0 -22.09,-4.52 -22.09,-13.67l0 -37.7c0,-11.96 10,-14.64 21.96,-14.64zm58.81 -6.47l0 12.81c0,15.49 -0.85,27.57 -2.44,36.12 -1.7,8.67 -4.39,15.74 -8.05,21.23l-6.83 0 0 29.28 10.37 0 0 -20.25 54.05 0 0 20.25 10.26 0 0 -29.28 -7.81 0 0 -70.16 -49.55 0zm11.11 14.76l0 -5.61 26.85 0 0 61.01 -36.61 0c6.46,-11.6 9.76,-35.88 9.76,-55.4zm173.39 64.43l0 -79.19 -17.08 0 -24.04 66.01 -0.36 -0.12 -25.39 -65.89 -17.69 0 0 79.19 10.62 0 0 -66.99 0.61 0 26.23 66.99 10.61 0 25.51 -66.99 0.61 0 0 66.99 10.37 0zm74.92 0l0 -8.3 -42.58 0 0 -28.43 37.33 0 0 -8.3 -37.33 0 0 -25.87 41.35 0 0 -8.29 -53.19 0 0 79.19 54.42 0zm25.88 -79.19l0 12.81c0,15.49 -0.86,27.57 -2.45,36.12 -1.71,8.67 -4.39,15.74 -8.05,21.23l-6.84 0 0 29.28 10.38 0 0 -20.25 54.05 0 0 20.25 10.26 0 0 -29.28 -7.82 0 0 -70.16 -49.53 0zm11.1 14.76l0 -5.61 26.84 0 0 61.01 -36.61 0c6.47,-11.6 9.77,-35.88 9.77,-55.4zm75.16 64.43l0 0 42.58 -66.51 0 66.51 10.87 0 0 -79.19 -14.28 0 -42.59 65.4 0 -65.4 -10.85 0 0 79.19 14.27 0zm139.58 20.25l0 -99.44 -11.82 0 0 71.01 -42.1 0 0 -71.01 -11.84 0 0 79.19 54.67 0 0 20.25 11.09 0zm34.9 -20.25l0 0 42.59 -66.51 0 66.51 10.87 0 0 -79.19 -14.29 0 -42.59 65.4 0 -65.4 -10.85 0 0 79.19 14.27 0zm139.6 0l0 -79.19 -11.83 0 0 34.16 -42.1 0 0 -34.16 -11.83 0 0 79.19 11.83 0 0 -36.73 42.1 0 0 36.73 11.83 0zm51.62 -72.36l0 0c6.45,0 13.67,0.98 21.47,2.93l0 -8.79c-7.08,-1.59 -14.27,-2.31 -21.73,-2.31 -22.19,0 -33.29,7.56 -33.29,22.69l0 37.59c0,14.27 11.1,21.47 33.29,21.47 7.71,0 15.14,-0.73 22.22,-2.32l0 -9.03c-7.8,1.95 -15,2.93 -21.47,2.93 -15.14,0 -22.7,-4.52 -22.7,-13.67l0 -37.09c0,-12.08 10.24,-14.4 22.21,-14.4zm49.67 72.36l0 -36.73c1.81,0 3.89,0.74 5.96,2.08 2.1,1.34 5.38,4.75 10.01,10l21.84 24.65 15.14 0 -22.21 -24.65c-8.9,-9.88 -14.88,-15.25 -17.93,-15.98 5.37,-1.35 7.56,-4.15 10.24,-8.91l7.69 -12.69c1.83,-3.06 3.65,-5.38 5.23,-6.72 1.61,-1.34 3.31,-1.95 5.38,-1.95l6.22 0 0 -8.29 -5.5 0c-5.72,0 -9.64,0.6 -11.71,1.82 -2.07,1.23 -4.86,4.4 -8.17,9.52l-10.85 16.96c-2.94,4.52 -4.52,5.98 -11.34,5.98l0 -34.28 -11.97 0 0 79.19 11.97 0zm75.65 0l0 0 42.57 -66.51 0 66.51 10.87 0 0 -79.19 -14.27 0 -42.59 65.4 0 -65.4 -10.88 0 0 79.19 14.3 0zm136.29 0l0 0 -29.15 -40.39 27.92 -38.8 -13.53 0 -21.12 30.62 -21.1 -30.62 -13.55 0 27.94 38.8 -29.15 40.39 13.53 0 22.33 -32.22 22.33 32.22 13.55 0zm53.67 0l0 0 42.59 -66.51 0 66.51 10.88 0 0 -79.19 -14.28 0 -42.58 65.4 0 -65.4 -10.88 0 0 79.19 14.27 0zm111.42 -41.98l0 -0.48c5.24,-0.86 10.86,-3.67 10.86,-9.53l0 -14.76c0,-5 -2.31,-8.42 -6.83,-10.37 -4.63,-1.95 -11.34,-2.93 -20.26,-2.93 -5.72,0 -13.55,0.37 -23.42,0.98l0 8.29c0.12,0 3.31,-0.24 9.27,-0.72 5.98,-0.37 10.73,-0.62 14.27,-0.62 10.62,0 15.86,2.08 15.86,6.35l0 13.3c0,5.25 -5.47,7.81 -16.46,7.81l-14.39 0 0 7.57 16.46 0c10.85,0 16.34,2.56 16.34,7.56l0 13.3c0,8.66 -9.99,9.15 -18.65,9.15 -6.35,0 -14.41,-0.97 -24.28,-3.05l0 9.03c8.77,1.59 17.32,2.32 25.49,2.32 8.78,0 17.07,-0.73 22.45,-4.39 3.54,-2.32 6.47,-6.72 6.47,-12.57l0 -15.86c0,-7.69 -6.7,-9.28 -13.18,-10.38zm42.71 -37.21l0 12.81c0,15.49 -0.86,27.57 -2.45,36.12 -1.7,8.67 -4.37,15.74 -8.03,21.23l-6.84 0 0 29.28 10.38 0 0 -20.25 54.05 0 0 20.25 10.24 0 0 -29.28 -7.8 0 0 -70.16 -49.55 0zm11.11 14.76l0 -5.61 26.85 0 0 61.01 -36.61 0c6.47,-11.6 9.76,-35.88 9.76,-55.4zm115.19 64.43l0 -8.3 -42.59 0 0 -28.43 37.33 0 0 -8.3 -37.33 0 0 -25.87 41.35 0 0 -8.29 -53.2 0 0 79.19 54.44 0zm13.29 -8.3l-6.7 0 0 8.3 10.85 0c9.15,0 14.41,-2.93 14.41,-11.96l0 -58.45 37.59 0 0 70.41 11.82 0 0 -79.19 -61.26 0 0 64.43c0,5.24 -1.46,6.46 -6.71,6.46zm102.88 8.3l0 0 42.57 -66.51 0 66.51 10.87 0 0 -79.19 -14.27 0 -42.59 65.4 0 -65.4 -10.85 0 0 79.19 14.27 0zm88.2 0l0 0 42.59 -66.51 0 66.51 10.88 0 0 -79.19 -14.3 0 -42.59 65.4 0 -65.4 -10.85 0 0 79.19 14.27 0zm21.12 -93.1l0 0c-2.67,0 -4.51,-0.61 -5.61,-1.71 -1.09,-1.1 -2.21,-3.3 -3.3,-6.47l-10.48 0c0.46,8.91 7.54,15.5 16.83,15.5 9.15,0 16.23,-6.71 16.84,-15.5l-5.5 0c-1.46,4.75 -3.28,8.18 -8.78,8.18z"/>
   <path class="fil0" d="M61.79 53.41c-20.53,3.31 -39.9,8.3 -57.52,15.11 -22.66,120.51 47.79,304.92 142.93,385.25 -6.37,-21.47 -11.98,-41.66 -16.79,-60.66 -67.32,-104.45 -69.53,-241.34 -69.53,-241.34 -1.66,-27.93 -1.6,-59.57 0.91,-98.36z"/>
   <path class="fil1" d="M409.12 135.4c-78.77,-63.32 -204.81,-99.4 -317.49,-85.72 -9.23,42.46 -7.9,187.12 19.19,233.49 -9.63,-139.8 73.66,-169.49 298.3,-147.77z"/>
   <path class="fil1" d="M376.45 404.69c93.9,-37.38 187.39,-129.29 230.98,-234.09 -32.41,-28.96 -158.96,-99.04 -212.67,-98.31 126.42,60.47 111.23,147.59 -18.31,332.4z"/>
   <path class="fil0" d="M618.87 142.78c7.24,-19.49 12.44,-38.8 15.19,-57.49 -93.73,-79.09 -288.91,-108.6 -405.69,-65.36 21.84,5.03 42.17,10.09 61.07,15.27 124.06,-7.15 244.28,58.34 244.28,58.34 25.13,12.33 52.64,27.96 85.15,49.24z"/>
   <path class="fil1" d="M158.27 250.84c-14.89,99.96 17.57,226.97 86.26,317.34 41.31,-13.45 165.52,-87.62 191.88,-134.42 -115.82,78.89 -183.5,21.96 -278.14,-182.92z"/>
   <path class="fil0" d="M262.81 592.06c13.22,16.05 27.3,30.26 42.08,42.03 115.47,-41.27 239.1,-195.16 260.42,-317.85 -15.32,16.36 -29.91,31.37 -43.88,45.11 -56.19,110.85 -173.25,181.85 -173.25,181.85 -23.28,15.53 -50.62,31.45 -85.37,48.86z"/>
  </g>
 </g>
</svg>
