<?xml version="1.0" encoding="UTF-8"?>
<!DOCTYPE svg PUBLIC "-//W3C//DTD SVG 1.0//EN" "http://www.w3.org/TR/2001/REC-SVG-20010904/DTD/svg10.dtd">
<!-- Creator: CorelDRAW -->
<svg xmlns="http://www.w3.org/2000/svg" xml:space="preserve" width="699.191mm" height="129.904mm" version="1.0" style="shape-rendering:geometricPrecision; text-rendering:geometricPrecision; image-rendering:optimizeQuality; fill-rule:evenodd; clip-rule:evenodd"
viewBox="0 0 84769.19 15749.39"
 xmlns:xlink="http://www.w3.org/1999/xlink"
 xmlns:xodm="http://www.corel.com/coreldraw/odm/2003">
 <defs>
  <style type="text/css">
   <![CDATA[
    .fil2 {fill:#286886}
    .fil1 {fill:#006481}
    .fil0 {fill:#E40059}
   ]]>
  </style>
 </defs>
 <g id="Layer_x0020_1">
  <metadata id="CorelCorpID_0Corel-Layer"/>
  <path class="fil0" d="M22086.76 8792.23l-1073.85 0 0 3698.89 -1865.32 0 0 -9053.04 1865.32 0 0 3624.74 850.92 0 2213.25 -3624.74 2275.11 0 -2790.7 4284.64 3083.42 4768.4 -2225.86 0 -2332.29 -3698.89zm7138.87 509.46l0 3189.44 -1865.49 0 0 -9053.04 3531.43 0c678.97,0 1277.23,125.29 1793.23,373.6 515.47,248.26 912.19,602.61 1190.57,1061.07 277.79,456.33 415.8,978.4 415.8,1561.86 0,887.11 -303.58,1587.41 -910.52,2098.84 -606.83,511.31 -1447.33,768.23 -2521.18,768.23l-1633.84 0zm0 -1511.1l1665.93 0c492.23,0 869.88,-116.67 1128.88,-347.92 258.89,-231.43 388.17,-564.5 388.17,-995.4 0,-443.43 -131.59,-802.12 -392.45,-1073.61 -261.03,-273.87 -621.68,-416.04 -1082.46,-424.48l-1708.08 0 0 2841.41zm11773.35 -4352.51l1871.69 0 0 9053.04 -1871.69 0 0 -6011.99 -3624.62 6011.99 -1863.19 0 0 -9053.04 1863.19 0 0 6024.85 3624.62 -6024.85zm10593.64 6037.57l0 0c-69.95,973.93 -428.52,1740.06 -1078.01,2300.29 -647.28,560.37 -1502.42,840.36 -2563.38,840.36 -1160.97,0 -2073.45,-390.38 -2739.82,-1173.56 -664.29,-780.9 -997.3,-1852.5 -997.3,-3217.15l0 -553.7c0,-870.22 152.8,-1636.21 460.37,-2298.23 305.73,-664.29 744.88,-1173.7 1313.66,-1527.99 570.74,-354.35 1232.84,-530.38 1986.22,-530.38 1046.44,0 1886.66,280.11 2525.46,838.02 638.72,560.28 1005.8,1345.52 1105.41,2357.67l-1865.21 0c-44.4,-585.6 -207.78,-1007.99 -488.07,-1271.05 -278.03,-265.26 -704.58,-396.96 -1277.58,-396.96 -621.68,0 -1086.51,222.93 -1394.26,668.68 -309.6,445.52 -468.99,1137.27 -475.29,2073.18l0 685.51c0,978.22 146.4,1693.32 443.61,2143.19 296.82,452.04 763.96,679.23 1402.81,679.23 574.98,0 1005.8,-131.73 1290.14,-394.84 282.24,-263.21 445.63,-670.49 488.06,-1222.27l1863.19 0zm7827.8 -4526.47l-2772.85 0 0 7541.94 -1865.49 0 0 -7541.94 -2735.26 0 0 -1511.1 7373.6 0 0 1511.1zm5384.26 5676.57l0 0 627.87 1865.37 1984.19 0 -3389.08 -9053.04 -1729.23 0 -3367.69 9053.04 1981.88 0 622.08 -1865.37 3269.99 0zm-2767.57 -1510.92l0 0 1127.38 -3388.97 1137.79 3388.97 -2265.17 0zm13711.29 -5676.75l0 9053.04 -1872.04 0 0 -7541.94 -2412.6 0 -148.01 3195.87c-64.17,1077.95 -199.45,1926.74 -412.21,2546.55 -210.45,619.53 -519.75,1073.74 -925.03,1360.31 -407.59,288.52 -961.46,435.01 -1666.21,439.2l-485.65 0 0 -1498.16 312.2 -31.92c466.56,-61.55 801.89,-330.89 1003.08,-810.7 202.35,-479.56 329.54,-1330.53 382.73,-2559.26l154.36 -4152.99 6069.37 0zm9020.8 0l0 9053.04 -1871.46 0 0 -7541.94 -2412.61 0 -149.16 3195.87c-63.59,1077.95 -199.45,1926.74 -411.63,2546.55 -209.86,619.53 -519.18,1073.74 -924.46,1360.31 -408.16,288.52 -961.45,435.01 -1666.21,439.2l-486.22 0 0 -1498.16 312.77 -31.92c466.56,-61.55 801.89,-330.89 1003.08,-810.7 201.78,-479.56 329.54,-1330.53 382.16,-2559.26l154.36 -4152.99 6069.37 0z"/>
  <path class="fil0" d="M1534.78 1326.65c-509.9,82.15 -991.1,206.17 -1428.73,375.33 -562.92,2993.23 1187.05,7573.52 3550.07,9568.66 -158.29,-533.32 -297.63,-1034.73 -416.92,-1506.54 -1672.13,-2594.37 -1727.05,-5994.55 -1727.05,-5994.55 -41.2,-693.72 -39.73,-1479.59 22.62,-2442.89z"/>
  <path class="fil1" d="M10161.59 3363.05c-1956.51,-1572.62 -5087.04,-2468.68 -7885.58,-2129.26 -229.36,1054.83 -196.16,4647.77 476.54,5799.72 -239.14,-3472.52 1829.69,-4209.82 7409.04,-3670.46z"/>
  <path class="fil2" d="M9350.22 10051.58c2332.12,-928.3 4654.23,-3211.22 5736.81,-5814.14 -804.77,-719.21 -3947.92,-2460.01 -5281.98,-2441.86 3139.96,1502.03 2762.6,3665.8 -454.83,8256z"/>
  <path class="fil0" d="M15371.42 3546.54c179.75,-484.08 308.9,-963.94 377.13,-1428.14 -2327.85,-1964.36 -7175.82,-2697.39 -10076.26,-1623.31 542.36,124.75 1047.25,250.44 1516.82,379.09 3081.28,-177.49 6067.35,1449.29 6067.35,1449.29 623.99,306.3 1307.47,694.35 2114.97,1223.06z"/>
  <path class="fil1" d="M3931.15 6230.29c-369.95,2482.85 436.32,5637.53 2142.37,7882.04 1026.22,-334.11 4111.19,-2176.42 4765.88,-3338.61 -2876.67,1959.39 -4557.69,545.35 -6908.25,-4543.43z"/>
  <path class="fil0" d="M6527.59 14705.4c328.28,398.69 678.16,751.62 1045.18,1043.99 2868.12,-1025.08 5938.76,-4847.39 6468.34,-7894.61 -380.59,406.2 -743.04,779.17 -1090.1,1120.44 -1395.58,2753.24 -4303.02,4516.63 -4303.02,4516.63 -578.15,385.73 -1257.41,781.32 -2120.41,1213.55z"/>
 </g>
</svg>
